<svg width="62" height="62" viewBox="0 0 62 62" fill="none" xmlns="http://www.w3.org/2000/svg">
<g id="material-symbols:person-book">
<path id="Vector" d="M31 41.3333C28.0292 41.3333 25.2521 41.7854 22.6687 42.6896C20.0854 43.5938 17.6958 44.8639 15.5 46.5V51.6667H46.5V46.5C44.3042 44.8639 41.9146 43.5938 39.3312 42.6896C36.7479 41.7854 33.9708 41.3333 31 41.3333ZM15.5 56.8333C14.0792 56.8333 12.8624 56.327 11.8497 55.3143C10.8371 54.3017 10.3316 53.0858 10.3333 51.6667V10.3333C10.3333 8.9125 10.8397 7.69575 11.8523 6.68308C12.865 5.67042 14.0809 5.16495 15.5 5.16667H46.5C47.9208 5.16667 49.1376 5.673 50.1502 6.68567C51.1629 7.69834 51.6684 8.91422 51.6667 10.3333V51.6667C51.6667 53.0875 51.1603 54.3043 50.1477 55.3169C49.135 56.3296 47.9191 56.8351 46.5 56.8333H15.5ZM31 36.1667C33.4972 36.1667 35.6285 35.284 37.3937 33.5188C39.159 31.7535 40.0417 29.6222 40.0417 27.125C40.0417 24.6278 39.159 22.4965 37.3937 20.7313C35.6285 18.966 33.4972 18.0833 31 18.0833C28.5028 18.0833 26.3715 18.966 24.6062 20.7313C22.841 22.4965 21.9583 24.6278 21.9583 27.125C21.9583 29.6222 22.841 31.7535 24.6062 33.5188C26.3715 35.284 28.5028 36.1667 31 36.1667Z" fill="#000505"/>
</g>
</svg>
