<svg width="193" height="193" viewBox="0 0 193 193" fill="none" xmlns="http://www.w3.org/2000/svg">
<g id="mdi:bunny">
<path id="Vector" d="M145.152 168.875L123.198 130.758C123.198 116.845 114.594 107.919 104.14 107.919C96.9021 107.919 90.6296 111.94 87.4129 117.891C90.0667 116.363 93.2029 115.559 96.5 115.559C106.954 115.559 115.478 124.083 115.478 134.537C115.478 145.072 107.035 153.676 96.5 153.676H123.038V168.875H54.6029C52.6729 168.875 50.6625 168.151 49.215 166.623C47.787 165.194 46.9848 163.256 46.9848 161.235C46.9848 159.215 47.787 157.277 49.215 155.847L53.2358 151.827C50.5017 150.62 48.25 148.771 45.9983 146.841C44.2292 150.862 40.2083 153.676 35.5442 153.676C32.505 153.676 29.5902 152.469 27.4412 150.32C25.2921 148.171 24.0848 145.256 24.0848 142.217C24.0848 139.178 25.2921 136.263 27.4412 134.114C29.5902 131.965 32.505 130.758 35.5442 130.758L39.3238 131.401V115.559C39.3132 110.55 40.2919 105.589 42.2037 100.959C44.1155 96.3299 46.9228 92.1236 50.4645 88.582C54.0061 85.0403 58.2124 82.233 62.8418 80.3212C67.4712 78.4094 72.4326 77.4307 77.4413 77.4413H77.6021C94.6504 77.5217 107.919 84.1963 107.919 73.6617C107.919 66.1829 109.528 63.2075 112.262 59.0258C106.391 56.2917 99.7167 54.6029 92.7204 54.6029C88.4583 54.6029 85.0808 51.2254 85.0808 46.9633C85.0808 43.5054 87.3325 40.6104 90.4688 39.6454L85.0808 39.3237C80.8992 39.3237 77.4413 35.9463 77.4413 31.7646C77.4413 27.5025 80.8992 24.125 85.0808 24.125H92.7204C109.608 24.125 124.405 33.3729 132.366 47.0438L134.618 46.9633C140.327 46.9633 145.635 48.8129 149.977 51.8687L153.596 54.9246C171.046 70.6058 168.875 81.2208 168.875 81.3012C168.875 91.5946 160.351 100.038 149.977 100.038L146.037 99.6363V100.28C146.037 109.206 142.177 117.167 136.145 122.796L162.763 168.875H145.152ZM146.037 62.2425C141.775 62.2425 138.397 65.62 138.397 69.8017C138.397 74.0638 141.775 77.4413 146.037 77.4413C150.218 77.4413 153.676 74.0638 153.676 69.8017C153.676 65.62 150.218 62.2425 146.037 62.2425Z" fill="#F0EFF4"/>
</g>
</svg>
