<svg width="62" height="62" viewBox="0 0 62 62" fill="none" xmlns="http://www.w3.org/2000/svg">
<rect width="62" height="62" fill="#1E1E1E"/>
<rect id="Rectangle 1" x="-211" y="-243" width="1920" height="1080" fill="#D9D9D9"/>
<path id="Rectangle 2" d="M-211 -243H90V835H-211V-243Z" fill="#C8C010"/>
<g id="ph:binoculars">
<path id="Vector" d="M57.4469 36.781C57.2851 36.3295 57.095 35.8887 56.8777 35.4611L46.8052 12.5453C46.7099 12.3246 46.5734 12.1241 46.4031 11.9544C45.6834 11.2345 44.829 10.6635 43.8886 10.2739C42.9482 9.88434 41.9403 9.68383 40.9224 9.68383C39.9045 9.68383 38.8966 9.88434 37.9562 10.2739C37.0158 10.6635 36.1614 11.2345 35.4417 11.9544C35.0796 12.3168 34.8759 12.808 34.875 13.3203V19.375H27.125V13.3203C27.1252 13.0658 27.0753 12.8137 26.978 12.5785C26.8808 12.3433 26.7382 12.1296 26.5583 11.9495C25.8386 11.2297 24.9842 10.6587 24.0438 10.2691C23.1034 9.8795 22.0955 9.67898 21.0776 9.67898C20.0597 9.67898 19.0518 9.8795 18.1114 10.2691C17.171 10.6587 16.3166 11.2297 15.5969 11.9495C15.4266 12.1192 15.2901 12.3198 15.1948 12.5405L5.12227 35.4562C4.90499 35.8838 4.7149 36.3247 4.55313 36.7762C3.98277 38.372 3.76824 40.0733 3.92456 41.7608C4.08087 43.4483 4.60426 45.0812 5.45805 46.5451C6.31183 48.0091 7.47538 49.2686 8.86716 50.2356C10.259 51.2025 11.8453 51.8535 13.5152 52.1428C15.185 52.4322 16.8979 52.3529 18.5339 51.9107C20.1699 51.4684 21.6894 50.6737 22.9859 49.5824C24.2825 48.4911 25.3248 47.1295 26.0398 45.593C26.7548 44.0565 27.1252 42.3822 27.125 40.6875V23.25H34.875V40.6875C34.8741 42.3824 35.2439 44.057 35.9584 45.594C36.6729 47.1309 37.7149 48.4931 39.0113 49.5849C40.3077 50.6768 41.8271 51.4719 43.4632 51.9147C45.0993 52.3575 46.8124 52.4371 48.4825 52.1481C50.1525 51.859 51.7392 51.2083 53.1313 50.2415C54.5235 49.2746 55.6873 48.015 56.5413 46.551C57.3954 45.087 57.919 43.4539 58.0754 41.7662C58.2318 40.0785 58.0173 38.3771 57.4469 36.781ZM18.5782 14.4707C19.2242 13.9268 20.0301 13.6088 20.8734 13.5651C21.7167 13.5214 22.5513 13.7543 23.25 14.2285V32.0317C21.7373 30.6734 19.8942 29.7365 17.9054 29.3148C15.9165 28.8932 13.8518 29.0016 11.918 29.6292L18.5782 14.4707ZM15.5 48.4375C13.9672 48.4375 12.4688 47.983 11.1943 47.1314C9.91985 46.2798 8.92651 45.0694 8.33994 43.6533C7.75336 42.2372 7.59988 40.6789 7.89892 39.1756C8.19795 37.6722 8.93607 36.2913 10.0199 35.2074C11.1038 34.1236 12.4847 33.3854 13.9881 33.0864C15.4914 32.7874 17.0497 32.9409 18.4658 33.5274C19.8819 34.114 21.0923 35.1074 21.9439 36.3818C22.7955 37.6563 23.25 39.1547 23.25 40.6875C23.25 42.7429 22.4335 44.7142 20.9801 46.1676C19.5267 47.621 17.5554 48.4375 15.5 48.4375ZM38.75 14.2261C39.4487 13.7519 40.2833 13.5189 41.1266 13.5627C41.9699 13.6064 42.7758 13.9244 43.4218 14.4683L50.082 29.6244C48.148 28.9971 46.0832 28.889 44.0943 29.3111C42.1055 29.7332 40.2625 30.6706 38.75 32.0293V14.2261ZM46.5 48.4375C44.9672 48.4375 43.4688 47.983 42.1943 47.1314C40.9199 46.2798 39.9265 45.0694 39.3399 43.6533C38.7534 42.2372 38.5999 40.6789 38.8989 39.1756C39.1979 37.6722 39.9361 36.2913 41.0199 35.2074C42.1038 34.1236 43.4847 33.3854 44.9881 33.0864C46.4914 32.7874 48.0497 32.9409 49.4658 33.5274C50.8819 34.114 52.0923 35.1074 52.9439 36.3818C53.7955 37.6563 54.25 39.1547 54.25 40.6875C54.25 42.7429 53.4335 44.7142 51.9801 46.1676C50.5267 47.621 48.5554 48.4375 46.5 48.4375Z" fill="#000505"/>
</g>
</svg>
